<svg width="85" height="25" viewBox="0 0 85 25" fill="none" xmlns="http://www.w3.org/2000/svg">
<path fill-rule="evenodd" clip-rule="evenodd" d="M25.0743 3.30604L21.4171 9.39358C21.1559 11.3483 20.0819 13.0796 18.5145 14.2245L16.9471 16.7936C18.0211 16.654 19.066 16.4306 20.0239 16.1513L26.7288 4.98151C26.2934 4.3951 25.7419 3.83661 25.0743 3.30604ZM19.9658 0.79284C19.2111 0.569444 18.3984 0.401898 17.5857 0.262276L16.6859 1.7702C17.4406 2.04944 18.1082 2.41246 18.7177 2.88718L19.9658 0.79284ZM8.03622 16.2072C8.79089 16.4306 9.60361 16.5981 10.4163 16.7377L11.3161 15.2298C10.5905 14.9506 9.89387 14.5875 9.28433 14.1128L8.03622 16.2072ZM13.0287 15.6207L12.245 16.9332C13.1448 16.989 14.0155 17.017 14.9153 16.989L15.8151 15.4811C14.8863 15.7045 13.9575 15.7324 13.0287 15.6207ZM21.1849 6.51736C20.9237 5.62378 20.4883 4.81397 19.9368 4.11586L21.5913 1.35133C22.3459 1.6585 23.0425 1.99359 23.6811 2.35661L21.1849 6.51736ZM6.78811 10.4826C7.04934 11.3483 7.48473 12.186 8.03622 12.8841L6.41077 15.6487C5.6561 15.3415 4.95948 15.0064 4.32092 14.6434L6.78811 10.4826ZM14.9734 1.37926L15.7571 0.0668041C14.8573 0.0109551 13.9865 -0.0169696 13.0867 0.0109549L12.1869 1.51888C13.0867 1.29548 14.0446 1.23963 14.9734 1.37926ZM9.45848 2.77548L10.9968 0.178501C9.92289 0.318124 8.87797 0.541521 7.92011 0.820766L1.21516 11.9906C1.65054 12.6049 2.23106 13.1634 2.89865 13.694L6.5559 7.60642C6.81713 5.62378 7.92011 3.92038 9.45848 2.77548ZM27.6867 6.71283C29.0219 10.4547 25.858 13.666 22.5781 15.2298L27.6867 6.71283ZM5.39487 1.79812L0.315358 10.2872C-1.01983 6.54529 2.11496 3.33397 5.39487 1.79812Z" fill="#4CA7C5"/>
<path fill-rule="evenodd" clip-rule="evenodd" d="M17.8808 12.3657C17.8808 12.7535 17.7476 13.0305 17.4811 13.1967C16.4153 13.7784 15.2695 14 14.0437 14C11.1658 14 9.14069 11.784 9.00745 8.90311C8.87422 6.10536 10.5263 3.1414 14.0171 3.0029C14.923 2.9752 16.0422 3.1414 16.7883 3.69541C16.9216 3.77851 17.0548 3.88932 17.1614 3.69541C17.1614 3.69541 17.4545 3.1414 17.8542 3.1137V6.82557C17.8542 6.96407 17.8542 6.96407 17.7742 6.96407H17.4278C17.3213 6.96407 17.2946 6.93637 17.268 6.82557C16.8416 4.63723 16.4153 3.55691 14.0171 3.80622C12.0718 4.00012 11.379 6.32696 11.379 8.90311C11.379 11.1191 12.0452 13.169 14.0171 13.1967C14.8431 13.1967 15.3494 13.1413 15.3494 12.3657V10.5097C15.3494 9.98343 15.0563 9.67872 14.6832 9.67872C14.3368 9.67872 14.097 10.1496 14.097 10.1496C14.0171 10.1496 13.9904 10.1219 13.9904 10.0388V9.01391C13.9904 8.93081 14.0171 8.90311 14.097 8.90311C14.923 8.90311 15.7491 8.95851 16.5751 8.95851C17.6943 8.95851 18.7868 8.90311 18.8934 8.90311C18.9734 8.90311 19 8.93081 19 9.01391C19 9.34632 19 9.67872 19 10.0388C19 10.1219 18.9734 10.1496 18.8934 10.1496C18.8934 10.1496 18.7069 9.67872 18.3338 9.67872C17.9874 9.67872 17.8275 10.2881 17.8275 10.5097L17.8808 12.3657Z" fill="#0D4A58"/>
<path fill-rule="evenodd" clip-rule="evenodd" d="M82.0108 13.326L79.2309 8.81103V13.326H77.4147V4H79.2309V8.25591L82.0108 4H84.1236L80.973 8.44094L84.3089 13.326H82.0108Z" fill="#0D4A58"/>
<path fill-rule="evenodd" clip-rule="evenodd" d="M70.0015 13.326V4H75.6355V5.48031H71.8177V7.81181H75.4502V9.25512H71.8177V11.8457H75.6355V13.326H70.0015Z" fill="#0D4A58"/>
<path fill-rule="evenodd" clip-rule="evenodd" d="M66.1096 5.48031V13.363H64.2934V5.48031H61.7359V4H68.6672V5.48031H66.1096Z" fill="#0D4A58"/>
<path fill-rule="evenodd" clip-rule="evenodd" d="M58.6595 11.9197C58.956 11.9197 59.2155 11.8827 59.4379 11.8087C59.6603 11.7346 59.8456 11.6236 59.9568 11.4756C60.1051 11.3276 60.1792 11.1795 60.2533 10.9945C60.3274 10.8094 60.3645 10.6244 60.3645 10.4024C60.3645 10.1803 60.3274 9.99528 60.2533 9.84724C60.1792 9.6622 60.068 9.51417 59.9197 9.40315C59.7715 9.29213 59.5861 9.1811 59.3637 9.10709C59.1413 9.03307 58.8448 8.99606 58.5112 8.99606H57.2881V11.9567H58.6595V11.9197ZM58.7707 7.55276C59.3637 7.55276 59.9197 7.62677 60.3274 7.7748C60.7722 7.92283 61.1429 8.10787 61.4023 8.36693C61.6989 8.62598 61.8842 8.92205 62.0325 9.25512C62.1807 9.58819 62.2178 9.95827 62.2178 10.3654C62.2178 11.3646 61.9213 12.1047 61.2911 12.5858C60.661 13.0669 59.7344 13.326 58.5112 13.326H55.5089V4H57.251V7.55276H58.7707Z" fill="#0D4A58"/>
<path fill-rule="evenodd" clip-rule="evenodd" d="M46.6873 11.8087C47.4286 11.8457 47.7992 11.3276 47.9846 10.7354C48.0587 10.4764 48.1699 10.0693 48.244 9.69921C48.3181 9.32913 48.3552 8.84803 48.4293 8.32992C48.5035 7.7748 48.5405 7.14567 48.5776 6.44252C48.6147 5.73937 48.6517 4.9252 48.6888 4H53.8039V13.289H52.0247V5.51732H50.3197C50.2826 6.73858 50.2085 7.7748 50.0973 8.66299C49.9861 9.55118 49.8749 10.2913 49.7266 10.8835C49.5784 11.4756 49.393 11.9567 49.2077 12.3268C48.7629 13.1409 47.7992 13.289 46.9838 13.289L46.6873 11.8087Z" fill="#0D4A58"/>
<path fill-rule="evenodd" clip-rule="evenodd" d="M40.2749 13.326V4H45.9089V5.48031H42.0541V7.81181H45.7235V9.25512H42.0541V11.8457H45.9089V13.326H40.2749Z" fill="#0D4A58"/>
<path fill-rule="evenodd" clip-rule="evenodd" d="M39.0888 5.51732H35.1228V13.326H33.3807V4H39.0888V5.51732Z" fill="#0D4A58"/>
<path d="M1.22425 22.3116H0.385206V21.8575H1.22425C1.37036 21.8575 1.48843 21.8332 1.57846 21.7845C1.66849 21.7358 1.73417 21.6689 1.77549 21.5837C1.81829 21.497 1.83969 21.3981 1.83969 21.287C1.83969 21.182 1.81829 21.0839 1.77549 20.9926C1.73417 20.8998 1.66849 20.8253 1.57846 20.769C1.48843 20.7127 1.37036 20.6846 1.22425 20.6846H0.555671V23.5507H0V20.2282H1.22425C1.47367 20.2282 1.68546 20.2738 1.85962 20.3651C2.03525 20.4549 2.16882 20.5796 2.26032 20.7394C2.35183 20.8976 2.39758 21.0786 2.39758 21.2825C2.39758 21.497 2.35183 21.681 2.26032 21.8347C2.16882 21.9883 2.03525 22.1062 1.85962 22.1884C1.68546 22.2705 1.47367 22.3116 1.22425 22.3116Z" fill="#0F4C59"/>
<path d="M4.16643 23.0555V21.878C4.16643 21.7898 4.15093 21.7137 4.11994 21.6498C4.08894 21.586 4.04172 21.5365 3.97825 21.5015C3.91627 21.4665 3.83804 21.449 3.74359 21.449C3.65651 21.449 3.58124 21.4642 3.51778 21.4947C3.45431 21.5251 3.40487 21.5662 3.36945 21.6179C3.33403 21.6696 3.31632 21.7282 3.31632 21.7936H2.785C2.785 21.6962 2.80787 21.6019 2.85363 21.5106C2.89938 21.4194 2.96579 21.338 3.05287 21.2665C3.13995 21.195 3.244 21.1387 3.36502 21.0976C3.48604 21.0565 3.62183 21.036 3.77237 21.036C3.95242 21.036 4.11182 21.0672 4.25055 21.1296C4.39076 21.1919 4.50072 21.2863 4.58041 21.4125C4.66159 21.5373 4.70217 21.694 4.70217 21.8826V22.9802C4.70217 23.0928 4.70955 23.194 4.72431 23.2837C4.74055 23.372 4.76342 23.4488 4.79294 23.5142V23.5507H4.24613C4.22104 23.4914 4.20111 23.4161 4.18635 23.3248C4.17307 23.232 4.16643 23.1422 4.16643 23.0555ZM4.24391 22.0492L4.24834 22.3892H3.86535C3.76646 22.3892 3.67939 22.3991 3.60412 22.4189C3.52885 22.4371 3.46612 22.4645 3.41594 22.501C3.36576 22.5375 3.32812 22.5816 3.30303 22.6334C3.27794 22.6851 3.2654 22.7437 3.2654 22.8091C3.2654 22.8745 3.28016 22.9346 3.30968 22.9894C3.33919 23.0426 3.38199 23.0844 3.43808 23.1149C3.49564 23.1453 3.565 23.1605 3.64618 23.1605C3.75539 23.1605 3.85059 23.1377 3.93176 23.092C4.01441 23.0449 4.07935 22.9878 4.12658 22.9209C4.17381 22.8524 4.1989 22.7878 4.20185 22.7269L4.37453 22.9711C4.35682 23.0335 4.32656 23.1004 4.28376 23.1719C4.24096 23.2434 4.18488 23.3119 4.11551 23.3773C4.04762 23.4412 3.96571 23.4937 3.86977 23.5347C3.77532 23.5758 3.6661 23.5963 3.54213 23.5963C3.38568 23.5963 3.24621 23.5644 3.12371 23.5005C3.00122 23.4351 2.90528 23.3476 2.83592 23.2381C2.76655 23.127 2.73187 23.0015 2.73187 22.8616C2.73187 22.7307 2.75548 22.6151 2.80271 22.5147C2.85141 22.4128 2.92226 22.3276 3.01524 22.2591C3.10969 22.1907 3.22481 22.1389 3.36059 22.104C3.49638 22.0674 3.65134 22.0492 3.8255 22.0492H4.24391Z" fill="#0F4C59"/>
<path d="M6.25186 22.3709H5.79138V22.0925H6.1633C6.25776 22.0925 6.33303 22.0796 6.38911 22.0538C6.44667 22.0279 6.48726 21.9921 6.51087 21.9465C6.53596 21.8993 6.54851 21.8446 6.54851 21.7822C6.54851 21.7274 6.53596 21.6757 6.51087 21.627C6.48726 21.5768 6.44667 21.5358 6.38911 21.5038C6.33155 21.4719 6.25333 21.4559 6.15445 21.4559C6.07327 21.4559 6.00022 21.4696 5.93528 21.497C5.87182 21.5243 5.82163 21.5624 5.78474 21.6111C5.74784 21.6597 5.72939 21.716 5.72939 21.7799H5.19586C5.19586 21.6263 5.23792 21.4939 5.32205 21.3829C5.40765 21.2718 5.52203 21.1866 5.66519 21.1273C5.80835 21.068 5.96553 21.0383 6.13674 21.0383C6.28285 21.0383 6.4142 21.0543 6.5308 21.0862C6.64739 21.1166 6.74628 21.1623 6.82745 21.2231C6.9101 21.2825 6.97283 21.357 7.01563 21.4468C7.0599 21.535 7.08204 21.6377 7.08204 21.7548C7.08204 21.8385 7.06286 21.9176 7.02448 21.9921C6.98611 22.0667 6.93076 22.1329 6.85845 22.1907C6.78613 22.247 6.69831 22.2911 6.595 22.323C6.49316 22.355 6.37878 22.3709 6.25186 22.3709ZM5.79138 22.2112H6.25186C6.39354 22.2112 6.51899 22.2257 6.62821 22.2546C6.73742 22.2819 6.82893 22.323 6.90272 22.3778C6.97652 22.4326 7.03186 22.5003 7.06876 22.5809C7.10713 22.66 7.12632 22.7513 7.12632 22.8547C7.12632 22.9703 7.10197 23.0745 7.05326 23.1673C7.00603 23.2586 6.93814 23.3362 6.84959 23.4001C6.76251 23.464 6.65846 23.5127 6.53744 23.5461C6.41642 23.5796 6.28285 23.5963 6.13674 23.5963C5.97734 23.5963 5.82237 23.569 5.67183 23.5142C5.52277 23.4594 5.39953 23.375 5.30212 23.2609C5.20619 23.1453 5.15822 22.9985 5.15822 22.8205H5.69176C5.69176 22.8829 5.71021 22.9414 5.7471 22.9962C5.784 23.051 5.83713 23.0958 5.9065 23.1308C5.97587 23.1643 6.05925 23.181 6.15666 23.181C6.25702 23.181 6.33893 23.1651 6.4024 23.1331C6.46586 23.0996 6.51309 23.0563 6.54408 23.003C6.57508 22.9483 6.59057 22.8905 6.59057 22.8296C6.59057 22.7475 6.57508 22.6813 6.54408 22.6311C6.51309 22.5809 6.46586 22.5444 6.4024 22.5216C6.33893 22.4972 6.25924 22.485 6.1633 22.485H5.79138V22.2112Z" fill="#0F4C59"/>
<path d="M8.1159 21.5563V24.5H7.58237V21.0816H8.07384L8.1159 21.5563ZM9.67665 22.2934V22.3413C9.67665 22.5208 9.65599 22.6874 9.61466 22.841C9.57481 22.9932 9.51504 23.1263 9.43534 23.2404C9.35712 23.3529 9.26045 23.4404 9.14533 23.5028C9.03021 23.5652 8.89738 23.5963 8.74684 23.5963C8.59778 23.5963 8.46716 23.5682 8.35499 23.5119C8.2443 23.4541 8.15058 23.3727 8.07384 23.2677C7.99709 23.1628 7.9351 23.0396 7.88788 22.8981C7.84212 22.7551 7.80965 22.5984 7.79047 22.428V22.2432C7.80965 22.0621 7.84212 21.8978 7.88788 21.7503C7.9351 21.6027 7.99709 21.4757 8.07384 21.3692C8.15058 21.2627 8.2443 21.1805 8.35499 21.1227C8.46569 21.0649 8.59483 21.036 8.74241 21.036C8.89296 21.036 9.02652 21.0664 9.14312 21.1273C9.25971 21.1866 9.35786 21.2718 9.43756 21.3829C9.51726 21.4924 9.57703 21.6247 9.61688 21.7799C9.65673 21.9336 9.67665 22.1047 9.67665 22.2934ZM9.14312 22.3413V22.2934C9.14312 22.1793 9.13279 22.0735 9.11212 21.9762C9.09146 21.8773 9.05899 21.7906 9.01472 21.716C8.97044 21.6415 8.91362 21.5837 8.84425 21.5426C8.77636 21.5 8.69445 21.4787 8.59852 21.4787C8.50406 21.4787 8.42289 21.4954 8.35499 21.5289C8.2871 21.5609 8.23028 21.6057 8.18453 21.6635C8.13878 21.7213 8.10336 21.789 8.07827 21.8666C8.05318 21.9427 8.03546 22.0256 8.02513 22.1154V22.5581C8.04284 22.6676 8.0731 22.768 8.1159 22.8593C8.1587 22.9506 8.21921 23.0236 8.29743 23.0783C8.37713 23.1316 8.47897 23.1582 8.60294 23.1582C8.69888 23.1582 8.78079 23.1369 8.84868 23.0943C8.91657 23.0517 8.97192 22.9932 9.01472 22.9186C9.05899 22.8425 9.09146 22.7551 9.11212 22.6562C9.13279 22.5573 9.14312 22.4523 9.14312 22.3413Z" fill="#0F4C59"/>
<path d="M11.4809 23.0555V21.878C11.4809 21.7898 11.4654 21.7137 11.4344 21.6498C11.4034 21.586 11.3562 21.5365 11.2927 21.5015C11.2308 21.4665 11.1525 21.449 11.0581 21.449C10.971 21.449 10.8957 21.4642 10.8323 21.4947C10.7688 21.5251 10.7194 21.5662 10.6839 21.6179C10.6485 21.6696 10.6308 21.7282 10.6308 21.7936H10.0995C10.0995 21.6962 10.1224 21.6019 10.1681 21.5106C10.2139 21.4194 10.2803 21.338 10.3674 21.2665C10.4544 21.195 10.5585 21.1387 10.6795 21.0976C10.8005 21.0565 10.9363 21.036 11.0869 21.036C11.2669 21.036 11.4263 21.0672 11.565 21.1296C11.7053 21.1919 11.8152 21.2863 11.8949 21.4125C11.9761 21.5373 12.0167 21.694 12.0167 21.8826V22.9802C12.0167 23.0928 12.024 23.194 12.0388 23.2837C12.055 23.372 12.0779 23.4488 12.1074 23.5142V23.5507H11.5606C11.5355 23.4914 11.5156 23.4161 11.5008 23.3248C11.4876 23.232 11.4809 23.1422 11.4809 23.0555ZM11.5584 22.0492L11.5628 22.3892H11.1798C11.081 22.3892 10.9939 22.3991 10.9186 22.4189C10.8433 22.4371 10.7806 22.4645 10.7304 22.501C10.6803 22.5375 10.6426 22.5816 10.6175 22.6334C10.5924 22.6851 10.5799 22.7437 10.5799 22.8091C10.5799 22.8745 10.5947 22.9346 10.6242 22.9894C10.6537 23.0426 10.6965 23.0844 10.7526 23.1149C10.8101 23.1453 10.8795 23.1605 10.9607 23.1605C11.0699 23.1605 11.1651 23.1377 11.2463 23.092C11.3289 23.0449 11.3938 22.9878 11.4411 22.9209C11.4883 22.8524 11.5134 22.7878 11.5163 22.7269L11.689 22.9711C11.6713 23.0335 11.6411 23.1004 11.5983 23.1719C11.5555 23.2434 11.4994 23.3119 11.43 23.3773C11.3621 23.4412 11.2802 23.4937 11.1843 23.5347C11.0898 23.5758 10.9806 23.5963 10.8566 23.5963C10.7002 23.5963 10.5607 23.5644 10.4382 23.5005C10.3157 23.4351 10.2198 23.3476 10.1504 23.2381C10.081 23.127 10.0464 23.0015 10.0464 22.8616C10.0464 22.7307 10.07 22.6151 10.1172 22.5147C10.1659 22.4128 10.2367 22.3276 10.3297 22.2591C10.4242 22.1907 10.5393 22.1389 10.6751 22.104C10.8109 22.0674 10.9658 22.0492 11.14 22.0492H11.5584Z" fill="#0F4C59"/>
<path d="M14.0777 20H14.5094C14.5094 20.1354 14.491 20.2472 14.4541 20.3354C14.4187 20.4222 14.3655 20.4937 14.2947 20.5499C14.2253 20.6047 14.139 20.6488 14.0357 20.6823C13.9338 20.7158 13.8158 20.7462 13.6815 20.7736C13.5575 20.801 13.4453 20.8443 13.345 20.9037C13.2461 20.9615 13.1627 21.0428 13.0948 21.1478C13.0284 21.2513 12.9804 21.3844 12.9509 21.5472C12.9214 21.7099 12.9125 21.9085 12.9243 22.1427V22.2979L12.5015 22.3367V22.1815C12.5015 21.891 12.5273 21.6377 12.579 21.4217C12.6306 21.2056 12.7037 21.0238 12.7982 20.8763C12.8941 20.7272 13.0077 20.6085 13.1391 20.5203C13.2719 20.432 13.4195 20.3712 13.5818 20.3377C13.6925 20.3134 13.7848 20.289 13.8586 20.2647C13.9324 20.2388 13.987 20.2061 14.0224 20.1666C14.0593 20.1255 14.0777 20.07 14.0777 20ZM13.7036 21.2208C13.863 21.2208 14.0047 21.2497 14.1287 21.3076C14.2526 21.3638 14.3574 21.443 14.443 21.5449C14.5286 21.6468 14.5936 21.767 14.6378 21.9054C14.6836 22.0439 14.7065 22.1945 14.7065 22.3573V22.4075C14.7065 22.5778 14.6821 22.7353 14.6334 22.8798C14.5847 23.0243 14.5131 23.1506 14.4187 23.2586C14.3242 23.3651 14.2084 23.4488 14.0711 23.5096C13.9353 23.569 13.7796 23.5986 13.604 23.5986C13.4298 23.5986 13.2741 23.5674 13.1369 23.5051C12.9996 23.4427 12.8838 23.356 12.7893 23.2449C12.6948 23.1324 12.6233 23.0008 12.5746 22.8502C12.5259 22.6995 12.5015 22.5352 12.5015 22.3573V22.307C12.5 22.2751 12.5081 22.2439 12.5259 22.2135C12.545 22.1831 12.5679 22.1504 12.5945 22.1154C12.621 22.0804 12.6447 22.0401 12.6653 21.9944C12.7391 21.8408 12.8262 21.7061 12.9266 21.5905C13.0269 21.4749 13.1413 21.3844 13.2697 21.319C13.3996 21.2535 13.5442 21.2208 13.7036 21.2208ZM13.5996 21.6567C13.4667 21.6567 13.3583 21.6894 13.2741 21.7548C13.1915 21.8187 13.1302 21.9039 13.0904 22.0104C13.052 22.1169 13.0328 22.2325 13.0328 22.3573V22.4075C13.0328 22.5094 13.0439 22.606 13.066 22.6973C13.0882 22.7885 13.1214 22.8692 13.1656 22.9391C13.2114 23.0076 13.2704 23.0616 13.3428 23.1012C13.4165 23.1407 13.5036 23.1605 13.604 23.1605C13.7058 23.1605 13.7922 23.1407 13.863 23.1012C13.9353 23.0616 13.9936 23.0076 14.0379 22.9391C14.0836 22.8692 14.1169 22.7885 14.1375 22.6973C14.1597 22.606 14.1707 22.5094 14.1707 22.4075V22.3573C14.1707 22.2629 14.1597 22.1739 14.1375 22.0903C14.1169 22.0066 14.0836 21.9328 14.0379 21.8689C13.9921 21.8035 13.9331 21.7518 13.8608 21.7137C13.7885 21.6757 13.7014 21.6567 13.5996 21.6567Z" fill="#0F4C59"/>
<path d="M15.0231 22.3436V22.2911C15.0231 22.1131 15.0481 21.948 15.0983 21.7959C15.1485 21.6422 15.2208 21.5091 15.3153 21.3966C15.4112 21.2825 15.5278 21.1942 15.6651 21.1318C15.8038 21.068 15.9602 21.036 16.1344 21.036C16.31 21.036 16.4665 21.068 16.6037 21.1318C16.7425 21.1942 16.8598 21.2825 16.9557 21.3966C17.0517 21.5091 17.1247 21.6422 17.1749 21.7959C17.2251 21.948 17.2502 22.1131 17.2502 22.2911V22.3436C17.2502 22.5216 17.2251 22.6866 17.1749 22.8387C17.1247 22.9909 17.0517 23.124 16.9557 23.2381C16.8598 23.3507 16.7432 23.4389 16.6059 23.5028C16.4687 23.5652 16.313 23.5963 16.1388 23.5963C15.9632 23.5963 15.806 23.5652 15.6673 23.5028C15.53 23.4389 15.4134 23.3507 15.3175 23.2381C15.2216 23.124 15.1485 22.9909 15.0983 22.8387C15.0481 22.6866 15.0231 22.5216 15.0231 22.3436ZM15.5566 22.2911V22.3436C15.5566 22.4546 15.5677 22.5596 15.5898 22.6585C15.6119 22.7574 15.6466 22.8441 15.6938 22.9186C15.7411 22.9932 15.8016 23.0517 15.8754 23.0943C15.9492 23.1369 16.037 23.1582 16.1388 23.1582C16.2377 23.1582 16.3233 23.1369 16.3956 23.0943C16.4694 23.0517 16.5299 22.9932 16.5772 22.9186C16.6244 22.8441 16.6591 22.7574 16.6812 22.6585C16.7048 22.5596 16.7166 22.4546 16.7166 22.3436V22.2911C16.7166 22.1815 16.7048 22.0781 16.6812 21.9807C16.6591 21.8818 16.6236 21.7944 16.5749 21.7183C16.5277 21.6422 16.4672 21.5829 16.3934 21.5403C16.3211 21.4962 16.2348 21.4741 16.1344 21.4741C16.034 21.4741 15.947 21.4962 15.8732 21.5403C15.8008 21.5829 15.7411 21.6422 15.6938 21.7183C15.6466 21.7944 15.6119 21.8818 15.5898 21.9807C15.5677 22.0781 15.5566 22.1815 15.5566 22.2911Z" fill="#0F4C59"/>
<path d="M18.7556 21.0816V23.5507H18.2198V21.0816H18.7556ZM19.5415 21.0816V21.5152H17.4472V21.0816H19.5415Z" fill="#0F4C59"/>
<path d="M20.4735 21.0816V23.5507H19.94V21.0816H20.4735ZM22.0365 21.0816L20.9583 22.5672H20.3495L20.2787 22.0697H20.7237L21.3701 21.0816H22.0365ZM21.4122 23.5507L20.6905 22.4736L21.1111 22.161L22.1139 23.5507H21.4122Z" fill="#0F4C59"/>
<path d="M23.7544 23.0555V21.878C23.7544 21.7898 23.7389 21.7137 23.7079 21.6498C23.6769 21.586 23.6297 21.5365 23.5662 21.5015C23.5042 21.4665 23.426 21.449 23.3316 21.449C23.2445 21.449 23.1692 21.4642 23.1057 21.4947C23.0423 21.5251 22.9928 21.5662 22.9574 21.6179C22.922 21.6696 22.9043 21.7282 22.9043 21.7936H22.373C22.373 21.6962 22.3958 21.6019 22.4416 21.5106C22.4873 21.4194 22.5538 21.338 22.6408 21.2665C22.7279 21.195 22.832 21.1387 22.953 21.0976C23.074 21.0565 23.2098 21.036 23.3603 21.036C23.5404 21.036 23.6998 21.0672 23.8385 21.1296C23.9787 21.1919 24.0887 21.2863 24.1684 21.4125C24.2496 21.5373 24.2901 21.694 24.2901 21.8826V22.9802C24.2901 23.0928 24.2975 23.194 24.3123 23.2837C24.3285 23.372 24.3514 23.4488 24.3809 23.5142V23.5507H23.8341C23.809 23.4914 23.7891 23.4161 23.7743 23.3248C23.761 23.232 23.7544 23.1422 23.7544 23.0555ZM23.8319 22.0492L23.8363 22.3892H23.4533C23.3544 22.3892 23.2674 22.3991 23.1921 22.4189C23.1168 22.4371 23.0541 22.4645 23.0039 22.501C22.9537 22.5375 22.9161 22.5816 22.891 22.6334C22.8659 22.6851 22.8534 22.7437 22.8534 22.8091C22.8534 22.8745 22.8681 22.9346 22.8976 22.9894C22.9272 23.0426 22.97 23.0844 23.026 23.1149C23.0836 23.1453 23.153 23.1605 23.2341 23.1605C23.3434 23.1605 23.4386 23.1377 23.5197 23.092C23.6024 23.0449 23.6673 22.9878 23.7145 22.9209C23.7618 22.8524 23.7869 22.7878 23.7898 22.7269L23.9625 22.9711C23.9448 23.0335 23.9145 23.1004 23.8717 23.1719C23.8289 23.2434 23.7728 23.3119 23.7035 23.3773C23.6356 23.4412 23.5537 23.4937 23.4577 23.5347C23.3633 23.5758 23.2541 23.5963 23.1301 23.5963C22.9737 23.5963 22.8342 23.5644 22.7117 23.5005C22.5892 23.4351 22.4933 23.3476 22.4239 23.2381C22.3545 23.127 22.3198 23.0015 22.3198 22.8616C22.3198 22.7307 22.3434 22.6151 22.3907 22.5147C22.4394 22.4128 22.5102 22.3276 22.6032 22.2591C22.6977 22.1907 22.8128 22.1389 22.9486 22.104C23.0843 22.0674 23.2393 22.0492 23.4135 22.0492H23.8319Z" fill="#0F4C59"/>
<path d="M26.5283 22.7475L27.4692 21.0816H28.0027V23.5507H27.4692V21.8826L26.5283 23.5507H25.9948V21.0816H26.5283V22.7475Z" fill="#0F4C59"/>
<path d="M31.3036 21.0816V21.5198H30.1214V21.0816H31.3036ZM30.2476 21.0816V23.5507H29.714V21.0816H30.2476ZM31.722 21.0816V23.5507H31.1862V21.0816H31.722Z" fill="#0F4C59"/>
<path d="M32.8222 21.5563V24.5H32.2887V21.0816H32.7802L32.8222 21.5563ZM34.383 22.2934V22.3413C34.383 22.5208 34.3623 22.6874 34.321 22.841C34.2812 22.9932 34.2214 23.1263 34.1417 23.2404C34.0635 23.3529 33.9668 23.4404 33.8517 23.5028C33.7366 23.5652 33.6037 23.5963 33.4532 23.5963C33.3041 23.5963 33.1735 23.5682 33.0613 23.5119C32.9506 23.4541 32.8569 23.3727 32.7802 23.2677C32.7034 23.1628 32.6414 23.0396 32.5942 22.8981C32.5485 22.7551 32.516 22.5984 32.4968 22.428V22.2432C32.516 22.0621 32.5485 21.8978 32.5942 21.7503C32.6414 21.6027 32.7034 21.4757 32.7802 21.3692C32.8569 21.2627 32.9506 21.1805 33.0613 21.1227C33.172 21.0649 33.3012 21.036 33.4488 21.036C33.5993 21.036 33.7329 21.0664 33.8495 21.1273C33.9661 21.1866 34.0642 21.2718 34.1439 21.3829C34.2236 21.4924 34.2834 21.6247 34.3232 21.7799C34.3631 21.9336 34.383 22.1047 34.383 22.2934ZM33.8495 22.3413V22.2934C33.8495 22.1793 33.8391 22.0735 33.8185 21.9762C33.7978 21.8773 33.7653 21.7906 33.7211 21.716C33.6768 21.6415 33.62 21.5837 33.5506 21.5426C33.4827 21.5 33.4008 21.4787 33.3049 21.4787C33.2104 21.4787 33.1292 21.4954 33.0613 21.5289C32.9934 21.5609 32.9366 21.6057 32.8909 21.6635C32.8451 21.7213 32.8097 21.789 32.7846 21.8666C32.7595 21.9427 32.7418 22.0256 32.7315 22.1154V22.5581C32.7492 22.6676 32.7794 22.768 32.8222 22.8593C32.865 22.9506 32.9256 23.0236 33.0038 23.0783C33.0835 23.1316 33.1853 23.1582 33.3093 23.1582C33.4052 23.1582 33.4871 23.1369 33.555 23.0943C33.6229 23.0517 33.6783 22.9932 33.7211 22.9186C33.7653 22.8425 33.7978 22.7551 33.8185 22.6562C33.8391 22.5573 33.8495 22.4523 33.8495 22.3413Z" fill="#0F4C59"/>
<path d="M34.735 22.3436V22.2911C34.735 22.1131 34.7601 21.948 34.8103 21.7959C34.8604 21.6422 34.9328 21.5091 35.0272 21.3966C35.1232 21.2825 35.2397 21.1942 35.377 21.1318C35.5157 21.068 35.6722 21.036 35.8463 21.036C36.022 21.036 36.1784 21.068 36.3157 21.1318C36.4544 21.1942 36.5717 21.2825 36.6677 21.3966C36.7636 21.5091 36.8367 21.6422 36.8868 21.7959C36.937 21.948 36.9621 22.1131 36.9621 22.2911V22.3436C36.9621 22.5216 36.937 22.6866 36.8868 22.8387C36.8367 22.9909 36.7636 23.124 36.6677 23.2381C36.5717 23.3507 36.4551 23.4389 36.3179 23.5028C36.1806 23.5652 36.0249 23.5963 35.8508 23.5963C35.6751 23.5963 35.518 23.5652 35.3792 23.5028C35.242 23.4389 35.1254 23.3507 35.0294 23.2381C34.9335 23.124 34.8604 22.9909 34.8103 22.8387C34.7601 22.6866 34.735 22.5216 34.735 22.3436ZM35.2685 22.2911V22.3436C35.2685 22.4546 35.2796 22.5596 35.3017 22.6585C35.3239 22.7574 35.3586 22.8441 35.4058 22.9186C35.453 22.9932 35.5135 23.0517 35.5873 23.0943C35.6611 23.1369 35.7489 23.1582 35.8508 23.1582C35.9496 23.1582 36.0352 23.1369 36.1076 23.0943C36.1814 23.0517 36.2419 22.9932 36.2891 22.9186C36.3363 22.8441 36.371 22.7574 36.3932 22.6585C36.4168 22.5596 36.4286 22.4546 36.4286 22.3436V22.2911C36.4286 22.1815 36.4168 22.0781 36.3932 21.9807C36.371 21.8818 36.3356 21.7944 36.2869 21.7183C36.2397 21.6422 36.1791 21.5829 36.1054 21.5403C36.033 21.4962 35.9467 21.4741 35.8463 21.4741C35.746 21.4741 35.6589 21.4962 35.5851 21.5403C35.5128 21.5829 35.453 21.6422 35.4058 21.7183C35.3586 21.7944 35.3239 21.8818 35.3017 21.9807C35.2796 22.0781 35.2685 22.1815 35.2685 22.2911Z" fill="#0F4C59"/>
<path d="M37.9605 22.7475L38.9014 21.0816H39.435V23.5507H38.9014V21.8826L37.9605 23.5507H37.427V21.0816H37.9605V22.7475Z" fill="#0F4C59"/>
<path d="M40.9913 22.3709H40.5308V22.0925H40.9027C40.9972 22.0925 41.0725 22.0796 41.1285 22.0538C41.1861 22.0279 41.2267 21.9921 41.2503 21.9465C41.2754 21.8993 41.2879 21.8446 41.2879 21.7822C41.2879 21.7274 41.2754 21.6757 41.2503 21.627C41.2267 21.5768 41.1861 21.5358 41.1285 21.5038C41.071 21.4719 40.9928 21.4559 40.8939 21.4559C40.8127 21.4559 40.7396 21.4696 40.6747 21.497C40.6112 21.5243 40.5611 21.5624 40.5242 21.6111C40.4873 21.6597 40.4688 21.716 40.4688 21.7799H39.9353C39.9353 21.6263 39.9773 21.4939 40.0615 21.3829C40.1471 21.2718 40.2615 21.1866 40.4046 21.1273C40.5478 21.068 40.705 21.0383 40.8762 21.0383C41.0223 21.0383 41.1536 21.0543 41.2702 21.0862C41.3868 21.1166 41.4857 21.1623 41.5669 21.2231C41.6495 21.2825 41.7122 21.357 41.755 21.4468C41.7993 21.535 41.8215 21.6377 41.8215 21.7548C41.8215 21.8385 41.8023 21.9176 41.7639 21.9921C41.7255 22.0667 41.6702 22.1329 41.5979 22.1907C41.5255 22.247 41.4377 22.2911 41.3344 22.323C41.2326 22.355 41.1182 22.3709 40.9913 22.3709ZM40.5308 22.2112H40.9913C41.133 22.2112 41.2584 22.2257 41.3676 22.2546C41.4768 22.2819 41.5683 22.323 41.6421 22.3778C41.7159 22.4326 41.7713 22.5003 41.8082 22.5809C41.8466 22.66 41.8657 22.7513 41.8657 22.8547C41.8657 22.9703 41.8414 23.0745 41.7927 23.1673C41.7455 23.2586 41.6776 23.3362 41.589 23.4001C41.5019 23.464 41.3979 23.5127 41.2769 23.5461C41.1558 23.5796 41.0223 23.5963 40.8762 23.5963C40.7168 23.5963 40.5618 23.569 40.4113 23.5142C40.2622 23.4594 40.139 23.375 40.0415 23.2609C39.9456 23.1453 39.8976 22.9985 39.8976 22.8205H40.4312C40.4312 22.8829 40.4496 22.9414 40.4865 22.9962C40.5234 23.051 40.5766 23.0958 40.6459 23.1308C40.7153 23.1643 40.7987 23.181 40.8961 23.181C40.9964 23.181 41.0784 23.1651 41.1418 23.1331C41.2053 23.0996 41.2525 23.0563 41.2835 23.003C41.3145 22.9483 41.33 22.8905 41.33 22.8296C41.33 22.7475 41.3145 22.6813 41.2835 22.6311C41.2525 22.5809 41.2053 22.5444 41.1418 22.5216C41.0784 22.4972 40.9987 22.485 40.9027 22.485H40.5308V22.2112Z" fill="#0F4C59"/>
<path d="M43.484 22.4942H42.7181L42.7136 22.1062H43.3424C43.4457 22.1062 43.5305 22.0956 43.597 22.0743C43.6648 22.053 43.715 22.021 43.7475 21.9784C43.78 21.9343 43.7962 21.8811 43.7962 21.8187C43.7962 21.767 43.7866 21.7221 43.7674 21.6841C43.7482 21.6445 43.7187 21.6126 43.6789 21.5882C43.6405 21.5624 43.5918 21.5441 43.5328 21.5335C43.4752 21.5213 43.408 21.5152 43.3313 21.5152H42.8952V23.5507H42.3616V21.0816H43.3313C43.4848 21.0816 43.6228 21.0953 43.7453 21.1227C43.8693 21.1501 43.9748 21.1919 44.0619 21.2482C44.1489 21.3045 44.2154 21.376 44.2611 21.4627C44.3083 21.5479 44.3319 21.6483 44.3319 21.7639C44.3319 21.84 44.3157 21.9115 44.2832 21.9784C44.2522 22.0454 44.2058 22.1047 44.1438 22.1564C44.0818 22.2082 44.0058 22.2508 43.9157 22.2842C43.8257 22.3162 43.7224 22.336 43.6058 22.3436L43.484 22.4942ZM43.484 23.5507H42.5631L42.7756 23.1171H43.484C43.5785 23.1171 43.6567 23.105 43.7187 23.0806C43.7807 23.0563 43.8265 23.0213 43.856 22.9757C43.887 22.9285 43.9025 22.873 43.9025 22.8091C43.9025 22.7437 43.8877 22.6874 43.8582 22.6402C43.8287 22.5931 43.7829 22.5573 43.7209 22.533C43.6604 22.5071 43.5815 22.4942 43.484 22.4942H42.8752L42.8797 22.1062H43.6036L43.7564 22.2568C43.9084 22.2675 44.0346 22.301 44.1349 22.3573C44.2353 22.4135 44.3105 22.4843 44.3607 22.5695C44.4109 22.6547 44.436 22.7475 44.436 22.8479C44.436 22.9635 44.4146 23.0654 44.3718 23.1537C44.3305 23.2419 44.2685 23.3157 44.1858 23.375C44.1047 23.4328 44.005 23.4769 43.887 23.5074C43.7689 23.5363 43.6346 23.5507 43.484 23.5507Z" fill="#0F4C59"/>
<path d="M44.7946 22.3436V22.2911C44.7946 22.1131 44.8197 21.948 44.8699 21.7959C44.9201 21.6422 44.9924 21.5091 45.0869 21.3966C45.1828 21.2825 45.2994 21.1942 45.4366 21.1318C45.5754 21.068 45.7318 21.036 45.906 21.036C46.0816 21.036 46.2381 21.068 46.3753 21.1318C46.514 21.1942 46.6314 21.2825 46.7273 21.3966C46.8232 21.5091 46.8963 21.6422 46.9465 21.7959C46.9967 21.948 47.0217 22.1131 47.0217 22.2911V22.3436C47.0217 22.5216 46.9967 22.6866 46.9465 22.8387C46.8963 22.9909 46.8232 23.124 46.7273 23.2381C46.6314 23.3507 46.5148 23.4389 46.3775 23.5028C46.2403 23.5652 46.0846 23.5963 45.9104 23.5963C45.7348 23.5963 45.5776 23.5652 45.4389 23.5028C45.3016 23.4389 45.185 23.3507 45.0891 23.2381C44.9931 23.124 44.9201 22.9909 44.8699 22.8387C44.8197 22.6866 44.7946 22.5216 44.7946 22.3436ZM45.3282 22.2911V22.3436C45.3282 22.4546 45.3392 22.5596 45.3614 22.6585C45.3835 22.7574 45.4182 22.8441 45.4654 22.9186C45.5127 22.9932 45.5732 23.0517 45.647 23.0943C45.7208 23.1369 45.8086 23.1582 45.9104 23.1582C46.0093 23.1582 46.0949 23.1369 46.1672 23.0943C46.241 23.0517 46.3015 22.9932 46.3487 22.9186C46.396 22.8441 46.4307 22.7574 46.4528 22.6585C46.4764 22.5596 46.4882 22.4546 46.4882 22.3436V22.2911C46.4882 22.1815 46.4764 22.0781 46.4528 21.9807C46.4307 21.8818 46.3952 21.7944 46.3465 21.7183C46.2993 21.6422 46.2388 21.5829 46.165 21.5403C46.0927 21.4962 46.0063 21.4741 45.906 21.4741C45.8056 21.4741 45.7185 21.4962 45.6447 21.5403C45.5724 21.5829 45.5127 21.6422 45.4654 21.7183C45.4182 21.7944 45.3835 21.8818 45.3614 21.9807C45.3392 22.0781 45.3282 22.1815 45.3282 22.2911Z" fill="#0F4C59"/>
<path d="M47.7435 21.0816H48.277L48.2504 21.9511C48.243 22.2036 48.215 22.4204 48.1663 22.6014C48.1176 22.7825 48.0541 22.9353 47.9759 23.0601C47.8977 23.1833 47.8091 23.2845 47.7103 23.3636C47.6128 23.4427 47.5103 23.5051 47.4025 23.5507H47.2453V23.1171L47.3206 23.1126C47.3841 23.0426 47.4387 22.9726 47.4844 22.9026C47.5317 22.8311 47.5715 22.7528 47.604 22.6676C47.6365 22.5809 47.6615 22.4797 47.6793 22.3641C47.6984 22.2485 47.711 22.1108 47.7169 21.9511L47.7435 21.0816ZM47.8851 21.0816H49.4038V23.5507H48.8725V21.5472H47.8851V21.0816ZM47.1236 23.1126H49.7315V24.2855H49.1979V23.5507H47.6638V24.2855H47.1214L47.1236 23.1126Z" fill="#0F4C59"/>
<path d="M51.0908 23.1582C51.1778 23.1582 51.2561 23.1407 51.3254 23.1057C51.3963 23.0692 51.4531 23.019 51.4959 22.9551C51.5402 22.8912 51.5645 22.8174 51.569 22.7338H52.0715C52.0685 22.8935 52.0228 23.0388 51.9342 23.1696C51.8457 23.3005 51.7284 23.4047 51.5822 23.4823C51.4361 23.5583 51.2745 23.5963 51.0974 23.5963C50.9144 23.5963 50.755 23.5644 50.6192 23.5005C50.4834 23.4351 50.3705 23.3453 50.2805 23.2312C50.1905 23.1171 50.1226 22.9855 50.0768 22.8365C50.0326 22.6874 50.0104 22.5276 50.0104 22.3573V22.2774C50.0104 22.107 50.0326 21.9473 50.0768 21.7982C50.1226 21.6476 50.1905 21.5152 50.2805 21.4011C50.3705 21.287 50.4834 21.198 50.6192 21.1341C50.755 21.0687 50.9137 21.036 51.0952 21.036C51.2871 21.036 51.4553 21.0756 51.5999 21.1547C51.7446 21.2323 51.8582 21.341 51.9409 21.481C52.025 21.6194 52.0685 21.7807 52.0715 21.9648H51.569C51.5645 21.8735 51.5424 21.7913 51.5025 21.7183C51.4642 21.6438 51.4096 21.5844 51.3387 21.5403C51.2694 21.4962 51.186 21.4741 51.0886 21.4741C50.9808 21.4741 50.8915 21.497 50.8207 21.5426C50.7498 21.5867 50.6945 21.6476 50.6546 21.7252C50.6148 21.8012 50.586 21.8872 50.5683 21.983C50.5521 22.0773 50.544 22.1755 50.544 22.2774V22.3573C50.544 22.4592 50.5521 22.5581 50.5683 22.6539C50.5845 22.7497 50.6126 22.8357 50.6524 22.9118C50.6938 22.9863 50.7498 23.0464 50.8207 23.092C50.8915 23.1362 50.9816 23.1582 51.0908 23.1582Z" fill="#0F4C59"/>
<path d="M53.5924 21.0816V23.5507H53.0567V21.0816H53.5924ZM54.3783 21.0816V21.5152H52.284V21.0816H54.3783Z" fill="#0F4C59"/>
<path d="M55.8992 22.4942H55.1332L55.1288 22.1062H55.7575C55.8608 22.1062 55.9457 22.0956 56.0121 22.0743C56.08 22.053 56.1302 22.021 56.1627 21.9784C56.1951 21.9343 56.2114 21.8811 56.2114 21.8187C56.2114 21.767 56.2018 21.7221 56.1826 21.6841C56.1634 21.6445 56.1339 21.6126 56.094 21.5882C56.0557 21.5624 56.0069 21.5441 55.9479 21.5335C55.8904 21.5213 55.8232 21.5152 55.7465 21.5152H55.3103V23.5507H54.7768V21.0816H55.7465C55.8999 21.0816 56.0379 21.0953 56.1604 21.1227C56.2844 21.1501 56.3899 21.1919 56.477 21.2482C56.5641 21.3045 56.6305 21.376 56.6763 21.4627C56.7235 21.5479 56.7471 21.6483 56.7471 21.7639C56.7471 21.84 56.7309 21.9115 56.6984 21.9784C56.6674 22.0454 56.6209 22.1047 56.5589 22.1564C56.4969 22.2082 56.4209 22.2508 56.3309 22.2842C56.2409 22.3162 56.1376 22.336 56.021 22.3436L55.8992 22.4942ZM55.8992 23.5507H54.9783L55.1908 23.1171H55.8992C55.9937 23.1171 56.0719 23.105 56.1339 23.0806C56.1959 23.0563 56.2416 23.0213 56.2711 22.9757C56.3021 22.9285 56.3176 22.873 56.3176 22.8091C56.3176 22.7437 56.3029 22.6874 56.2733 22.6402C56.2438 22.5931 56.1981 22.5573 56.1361 22.533C56.0756 22.5071 55.9966 22.4942 55.8992 22.4942H55.2904L55.2948 22.1062H56.0188L56.1715 22.2568C56.3235 22.2675 56.4497 22.301 56.5501 22.3573C56.6504 22.4135 56.7257 22.4843 56.7759 22.5695C56.8261 22.6547 56.8512 22.7475 56.8512 22.8479C56.8512 22.9635 56.8298 23.0654 56.787 23.1537C56.7456 23.2419 56.6836 23.3157 56.601 23.375C56.5198 23.4328 56.4202 23.4769 56.3021 23.5074C56.1841 23.5363 56.0497 23.5507 55.8992 23.5507Z" fill="#0F4C59"/>
<path d="M57.2098 22.3436V22.2911C57.2098 22.1131 57.2349 21.948 57.2851 21.7959C57.3352 21.6422 57.4076 21.5091 57.502 21.3966C57.598 21.2825 57.7145 21.1942 57.8518 21.1318C57.9905 21.068 58.147 21.036 58.3211 21.036C58.4968 21.036 58.6532 21.068 58.7905 21.1318C58.9292 21.1942 59.0465 21.2825 59.1425 21.3966C59.2384 21.5091 59.3115 21.6422 59.3616 21.7959C59.4118 21.948 59.4369 22.1131 59.4369 22.2911V22.3436C59.4369 22.5216 59.4118 22.6866 59.3616 22.8387C59.3115 22.9909 59.2384 23.124 59.1425 23.2381C59.0465 23.3507 58.9299 23.4389 58.7927 23.5028C58.6554 23.5652 58.4997 23.5963 58.3256 23.5963C58.1499 23.5963 57.9928 23.5652 57.854 23.5028C57.7168 23.4389 57.6002 23.3507 57.5042 23.2381C57.4083 23.124 57.3352 22.9909 57.2851 22.8387C57.2349 22.6866 57.2098 22.5216 57.2098 22.3436ZM57.7433 22.2911V22.3436C57.7433 22.4546 57.7544 22.5596 57.7765 22.6585C57.7987 22.7574 57.8334 22.8441 57.8806 22.9186C57.9278 22.9932 57.9883 23.0517 58.0621 23.0943C58.1359 23.1369 58.2237 23.1582 58.3256 23.1582C58.4244 23.1582 58.5101 23.1369 58.5824 23.0943C58.6562 23.0517 58.7167 22.9932 58.7639 22.9186C58.8111 22.8441 58.8458 22.7574 58.868 22.6585C58.8916 22.5596 58.9034 22.4546 58.9034 22.3436V22.2911C58.9034 22.1815 58.8916 22.0781 58.868 21.9807C58.8458 21.8818 58.8104 21.7944 58.7617 21.7183C58.7145 21.6422 58.654 21.5829 58.5802 21.5403C58.5078 21.4962 58.4215 21.4741 58.3211 21.4741C58.2208 21.4741 58.1337 21.4962 58.0599 21.5403C57.9876 21.5829 57.9278 21.6422 57.8806 21.7183C57.8334 21.7944 57.7987 21.8818 57.7765 21.9807C57.7544 22.0781 57.7433 22.1815 57.7433 22.2911Z" fill="#0F4C59"/>
<path d="M61.9917 23.1582C62.0787 23.1582 62.157 23.1407 62.2263 23.1057C62.2972 23.0692 62.354 23.019 62.3968 22.9551C62.4411 22.8912 62.4654 22.8174 62.4699 22.7338H62.9724C62.9694 22.8935 62.9237 23.0388 62.8351 23.1696C62.7466 23.3005 62.6293 23.4047 62.4831 23.4823C62.337 23.5583 62.1754 23.5963 61.9983 23.5963C61.8153 23.5963 61.6559 23.5644 61.5201 23.5005C61.3843 23.4351 61.2714 23.3453 61.1814 23.2312C61.0914 23.1171 61.0235 22.9855 60.9777 22.8365C60.9335 22.6874 60.9113 22.5276 60.9113 22.3573V22.2774C60.9113 22.107 60.9335 21.9473 60.9777 21.7982C61.0235 21.6476 61.0914 21.5152 61.1814 21.4011C61.2714 21.287 61.3843 21.198 61.5201 21.1341C61.6559 21.0687 61.8146 21.036 61.9961 21.036C62.188 21.036 62.3562 21.0756 62.5008 21.1547C62.6455 21.2323 62.7591 21.341 62.8418 21.481C62.9259 21.6194 62.9694 21.7807 62.9724 21.9648H62.4699C62.4654 21.8735 62.4433 21.7913 62.4034 21.7183C62.3651 21.6438 62.3105 21.5844 62.2396 21.5403C62.1703 21.4962 62.0869 21.4741 61.9895 21.4741C61.8817 21.4741 61.7924 21.497 61.7216 21.5426C61.6507 21.5867 61.5954 21.6476 61.5555 21.7252C61.5157 21.8012 61.4869 21.8872 61.4692 21.983C61.453 22.0773 61.4449 22.1755 61.4449 22.2774V22.3573C61.4449 22.4592 61.453 22.5581 61.4692 22.6539C61.4854 22.7497 61.5135 22.8357 61.5533 22.9118C61.5947 22.9863 61.6507 23.0464 61.7216 23.092C61.7924 23.1362 61.8825 23.1582 61.9917 23.1582Z" fill="#0F4C59"/>
<path d="M65.9367 20.2168V23.5507H65.4032V20.8694L64.6128 21.1455V20.6914L65.8725 20.2168H65.9367Z" fill="#0F4C59"/>
<path d="M67.4864 23.1171H67.5307C67.7343 23.1171 67.9041 23.0898 68.0399 23.035C68.1771 22.9787 68.2863 22.9011 68.3675 22.8022C68.4487 22.7033 68.507 22.587 68.5424 22.4531C68.5778 22.3192 68.5955 22.1739 68.5955 22.0172V21.4445C68.5955 21.3091 68.5815 21.1904 68.5535 21.0885C68.5269 20.985 68.4885 20.8991 68.4383 20.8306C68.3896 20.7606 68.3328 20.7082 68.2679 20.6732C68.2044 20.6382 68.1358 20.6207 68.062 20.6207C67.9808 20.6207 67.9078 20.6397 67.8428 20.6777C67.7794 20.7142 67.7255 20.7652 67.6812 20.8306C67.6384 20.8945 67.6052 20.9698 67.5816 21.0565C67.5595 21.1417 67.5484 21.233 67.5484 21.3304C67.5484 21.4217 67.5587 21.5099 67.5794 21.5951C67.6015 21.6788 67.634 21.7533 67.6768 21.8187C67.7196 21.8841 67.7735 21.9359 67.8384 21.9739C67.9033 22.0119 67.9793 22.0309 68.0664 22.0309C68.1491 22.0309 68.2251 22.015 68.2944 21.983C68.3638 21.9495 68.4243 21.9047 68.476 21.8484C68.5276 21.7921 68.5682 21.729 68.5977 21.659C68.6273 21.589 68.6435 21.5175 68.6464 21.4445L68.8501 21.5084C68.8501 21.624 68.8265 21.7381 68.7793 21.8507C68.7335 21.9617 68.6693 22.0636 68.5867 22.1564C68.5055 22.2477 68.4103 22.3207 68.3011 22.3755C68.1933 22.4303 68.076 22.4577 67.9491 22.4577C67.7956 22.4577 67.6598 22.428 67.5417 22.3687C67.4251 22.3078 67.3277 22.2257 67.2495 22.1222C67.1728 22.0188 67.1152 21.9001 67.0768 21.7662C67.0385 21.6324 67.0193 21.4916 67.0193 21.3441C67.0193 21.1843 67.0429 21.0345 67.0901 20.8945C67.1373 20.7546 67.206 20.6313 67.296 20.5248C67.386 20.4168 67.4952 20.3332 67.6237 20.2738C67.7535 20.213 67.9004 20.1826 68.0642 20.1826C68.2384 20.1826 68.3911 20.2175 68.5225 20.2875C68.6538 20.3575 68.7645 20.4541 68.8545 20.5773C68.9446 20.7006 69.0125 20.8436 69.0582 21.0063C69.104 21.1691 69.1268 21.3441 69.1268 21.5312V21.7252C69.1268 21.9214 69.1099 22.1108 69.0759 22.2934C69.042 22.4744 68.9866 22.6425 68.9099 22.7977C68.8346 22.9513 68.735 23.0867 68.611 23.2039C68.4885 23.3195 68.338 23.41 68.1594 23.4754C67.9823 23.5393 67.7742 23.5712 67.5351 23.5712H67.4864V23.1171Z" fill="#0F4C59"/>
<path d="M70.0633 23.1171H70.1076C70.3112 23.1171 70.481 23.0898 70.6167 23.035C70.754 22.9787 70.8632 22.9011 70.9444 22.8022C71.0256 22.7033 71.0839 22.587 71.1193 22.4531C71.1547 22.3192 71.1724 22.1739 71.1724 22.0172V21.4445C71.1724 21.3091 71.1584 21.1904 71.1304 21.0885C71.1038 20.985 71.0654 20.8991 71.0152 20.8306C70.9665 20.7606 70.9097 20.7082 70.8448 20.6732C70.7813 20.6382 70.7127 20.6207 70.6389 20.6207C70.5577 20.6207 70.4847 20.6397 70.4197 20.6777C70.3563 20.7142 70.3024 20.7652 70.2581 20.8306C70.2153 20.8945 70.1821 20.9698 70.1585 21.0565C70.1363 21.1417 70.1253 21.233 70.1253 21.3304C70.1253 21.4217 70.1356 21.5099 70.1563 21.5951C70.1784 21.6788 70.2109 21.7533 70.2537 21.8187C70.2965 21.8841 70.3504 21.9359 70.4153 21.9739C70.4802 22.0119 70.5562 22.0309 70.6433 22.0309C70.726 22.0309 70.802 22.015 70.8713 21.983C70.9407 21.9495 71.0012 21.9047 71.0529 21.8484C71.1045 21.7921 71.1451 21.729 71.1746 21.659C71.2042 21.589 71.2204 21.5175 71.2233 21.4445L71.427 21.5084C71.427 21.624 71.4034 21.7381 71.3562 21.8507C71.3104 21.9617 71.2462 22.0636 71.1636 22.1564C71.0824 22.2477 70.9872 22.3207 70.878 22.3755C70.7702 22.4303 70.6529 22.4577 70.526 22.4577C70.3725 22.4577 70.2367 22.428 70.1186 22.3687C70.002 22.3078 69.9046 22.2257 69.8264 22.1222C69.7497 22.0188 69.6921 21.9001 69.6537 21.7662C69.6154 21.6324 69.5962 21.4916 69.5962 21.3441C69.5962 21.1843 69.6198 21.0345 69.667 20.8945C69.7142 20.7546 69.7829 20.6313 69.8729 20.5248C69.9629 20.4168 70.0721 20.3332 70.2005 20.2738C70.3304 20.213 70.4773 20.1826 70.6411 20.1826C70.8153 20.1826 70.968 20.2175 71.0994 20.2875C71.2307 20.3575 71.3414 20.4541 71.4314 20.5773C71.5215 20.7006 71.5894 20.8436 71.6351 21.0063C71.6809 21.1691 71.7037 21.3441 71.7037 21.5312V21.7252C71.7037 21.9214 71.6868 22.1108 71.6528 22.2934C71.6189 22.4744 71.5635 22.6425 71.4868 22.7977C71.4115 22.9513 71.3119 23.0867 71.1879 23.2039C71.0654 23.3195 70.9149 23.41 70.7363 23.4754C70.5592 23.5393 70.3511 23.5712 70.112 23.5712H70.0633V23.1171Z" fill="#0F4C59"/>
<path d="M74.4312 22.3664V22.8045H72.1067L72.0889 22.4736L73.4792 20.2282H73.9065L73.4438 21.0451L72.6446 22.3664H74.4312ZM74.0283 20.2282V23.5507H73.4947V20.2282H74.0283Z" fill="#0F4C59"/>
<path d="M77.5416 21.0816V21.5198H76.4967V23.5507H75.9631V21.0816H77.5416Z" fill="#0F4C59"/>
<path d="M77.7054 22.3436V22.2911C77.7054 22.1131 77.7305 21.948 77.7807 21.7959C77.8309 21.6422 77.9032 21.5091 77.9977 21.3966C78.0936 21.2825 78.2102 21.1942 78.3474 21.1318C78.4862 21.068 78.6426 21.036 78.8168 21.036C78.9924 21.036 79.1489 21.068 79.2861 21.1318C79.4248 21.1942 79.5422 21.2825 79.6381 21.3966C79.734 21.5091 79.8071 21.6422 79.8573 21.7959C79.9075 21.948 79.9325 22.1131 79.9325 22.2911V22.3436C79.9325 22.5216 79.9075 22.6866 79.8573 22.8387C79.8071 22.9909 79.734 23.124 79.6381 23.2381C79.5422 23.3507 79.4256 23.4389 79.2883 23.5028C79.1511 23.5652 78.9954 23.5963 78.8212 23.5963C78.6456 23.5963 78.4884 23.5652 78.3497 23.5028C78.2124 23.4389 78.0958 23.3507 77.9999 23.2381C77.9039 23.124 77.8309 22.9909 77.7807 22.8387C77.7305 22.6866 77.7054 22.5216 77.7054 22.3436ZM78.239 22.2911V22.3436C78.239 22.4546 78.25 22.5596 78.2722 22.6585C78.2943 22.7574 78.329 22.8441 78.3762 22.9186C78.4235 22.9932 78.484 23.0517 78.5578 23.0943C78.6316 23.1369 78.7194 23.1582 78.8212 23.1582C78.9201 23.1582 79.0057 23.1369 79.078 23.0943C79.1518 23.0517 79.2123 22.9932 79.2595 22.9186C79.3068 22.8441 79.3415 22.7574 79.3636 22.6585C79.3872 22.5596 79.399 22.4546 79.399 22.3436V22.2911C79.399 22.1815 79.3872 22.0781 79.3636 21.9807C79.3415 21.8818 79.306 21.7944 79.2573 21.7183C79.2101 21.6422 79.1496 21.5829 79.0758 21.5403C79.0035 21.4962 78.9171 21.4741 78.8168 21.4741C78.7164 21.4741 78.6293 21.4962 78.5555 21.5403C78.4832 21.5829 78.4235 21.6422 78.3762 21.7183C78.329 21.7944 78.2943 21.8818 78.2722 21.9807C78.25 22.0781 78.239 22.1815 78.239 22.2911Z" fill="#0F4C59"/>
<path d="M80.6543 21.0816H81.1878L81.1612 21.9511C81.1538 22.2036 81.1258 22.4204 81.0771 22.6014C81.0284 22.7825 80.9649 22.9353 80.8867 23.0601C80.8085 23.1833 80.7199 23.2845 80.621 23.3636C80.5236 23.4427 80.4211 23.5051 80.3133 23.5507H80.1561V23.1171L80.2314 23.1126C80.2949 23.0426 80.3495 22.9726 80.3952 22.9026C80.4425 22.8311 80.4823 22.7528 80.5148 22.6676C80.5473 22.5809 80.5723 22.4797 80.5901 22.3641C80.6092 22.2485 80.6218 22.1108 80.6277 21.9511L80.6543 21.0816ZM80.7959 21.0816H82.3146V23.5507H81.7833V21.5472H80.7959V21.0816ZM80.0344 23.1126H82.6423V24.2855H82.1087V23.5507H80.5746V24.2855H80.0322L80.0344 23.1126Z" fill="#0F4C59"/>
<path d="M84.3735 23.0555V21.878C84.3735 21.7898 84.358 21.7137 84.327 21.6498C84.296 21.586 84.2488 21.5365 84.1853 21.5015C84.1233 21.4665 84.0451 21.449 83.9506 21.449C83.8636 21.449 83.7883 21.4642 83.7248 21.4947C83.6614 21.5251 83.6119 21.5662 83.5765 21.6179C83.5411 21.6696 83.5234 21.7282 83.5234 21.7936H82.9921C82.9921 21.6962 83.0149 21.6019 83.0607 21.5106C83.1064 21.4194 83.1729 21.338 83.2599 21.2665C83.347 21.195 83.4511 21.1387 83.5721 21.0976C83.6931 21.0565 83.8289 21.036 83.9794 21.036C84.1595 21.036 84.3189 21.0672 84.4576 21.1296C84.5978 21.1919 84.7078 21.2863 84.7875 21.4125C84.8686 21.5373 84.9092 21.694 84.9092 21.8826V22.9802C84.9092 23.0928 84.9166 23.194 84.9314 23.2837C84.9476 23.372 84.9705 23.4488 85 23.5142V23.5507H84.4532C84.4281 23.4914 84.4082 23.4161 84.3934 23.3248C84.3801 23.232 84.3735 23.1422 84.3735 23.0555ZM84.451 22.0492L84.4554 22.3892H84.0724C83.9735 22.3892 83.8864 22.3991 83.8112 22.4189C83.7359 22.4371 83.6732 22.4645 83.623 22.501C83.5728 22.5375 83.5352 22.5816 83.5101 22.6334C83.485 22.6851 83.4725 22.7437 83.4725 22.8091C83.4725 22.8745 83.4872 22.9346 83.5167 22.9894C83.5463 23.0426 83.5891 23.0844 83.6451 23.1149C83.7027 23.1453 83.7721 23.1605 83.8532 23.1605C83.9625 23.1605 84.0576 23.1377 84.1388 23.092C84.2215 23.0449 84.2864 22.9878 84.3336 22.9209C84.3809 22.8524 84.406 22.7878 84.4089 22.7269L84.5816 22.9711C84.5639 23.0335 84.5336 23.1004 84.4908 23.1719C84.448 23.2434 84.3919 23.3119 84.3226 23.3773C84.2547 23.4412 84.1728 23.4937 84.0768 23.5347C83.9824 23.5758 83.8732 23.5963 83.7492 23.5963C83.5927 23.5963 83.4533 23.5644 83.3308 23.5005C83.2083 23.4351 83.1123 23.3476 83.043 23.2381C82.9736 23.127 82.9389 23.0015 82.9389 22.8616C82.9389 22.7307 82.9625 22.6151 83.0098 22.5147C83.0585 22.4128 83.1293 22.3276 83.2223 22.2591C83.3168 22.1907 83.4319 22.1389 83.5677 22.104C83.7034 22.0674 83.8584 22.0492 84.0326 22.0492H84.451Z" fill="#0F4C59"/>
</svg>
